<?xml version="1.0" encoding="utf-8"?>
<svg version="1.1" id="Layer_1" x="0px" y="0px" width="100%" viewBox="0 0 1024 1024" enable-background="new 0 0 1024 1024" xmlns="http://www.w3.org/2000/svg">
  <defs/>
  <path opacity="1.000000" stroke="none" d="&#10;M482.376312,146.396271 &#10;&#9;C486.934692,140.470139 491.187653,134.752655 495.751282,129.294952 &#10;&#9;C498.280731,126.269958 501.865448,127.169022 502.929291,130.942749 &#10;&#9;C503.365723,132.490906 503.282623,134.246078 503.151947,135.884430 &#10;&#9;C501.343475,158.555664 492.812988,178.336761 477.545471,195.209015 &#10;&#9;C477.364868,195.408646 477.426361,195.827347 477.234863,197.003174 &#10;&#9;C505.554657,188.317825 534.609436,188.340179 563.870300,186.505859 &#10;&#9;C560.987061,182.358902 556.732117,180.246811 553.467346,177.070312 &#10;&#9;C541.139404,165.075790 531.551147,151.231216 525.070068,135.293671 &#10;&#9;C524.358337,133.543457 523.274414,132.156082 522.322937,130.615341 &#10;&#9;C520.986328,128.450882 519.826416,126.129585 521.900635,123.733551 &#10;&#9;C523.872375,121.455879 526.290100,122.270744 528.315552,123.348755 &#10;&#9;C536.286743,127.591270 543.513855,132.970245 550.145935,139.046188 &#10;&#9;C561.278442,149.245117 568.403137,162.192108 574.489014,175.786667 &#10;&#9;C575.559021,178.176910 575.433044,180.720200 575.230957,183.172485 &#10;&#9;C574.906067,187.115509 576.655701,188.708557 580.396790,188.635071 &#10;&#9;C590.088867,188.444687 599.717224,189.281387 609.253845,190.892685 &#10;&#9;C623.521118,193.303207 637.624084,196.370880 650.790588,202.713821 &#10;&#9;C654.754089,204.623199 658.133179,207.245346 661.118774,210.442123 &#10;&#9;C662.920959,212.371719 663.697937,214.614532 663.762939,217.240921 &#10;&#9;C664.377136,242.069229 658.896057,265.823242 649.925293,288.682251 &#10;&#9;C641.057983,311.277863 626.556763,329.799896 605.065308,341.792969 &#10;&#9;C593.218872,348.403717 580.172119,351.931488 566.530579,353.058044 &#10;&#9;C541.659546,355.112030 518.421326,350.697784 497.953308,335.697205 &#10;&#9;C491.965515,331.308899 485.924164,326.745361 481.726746,320.450867 &#10;&#9;C479.027710,316.403320 475.925140,316.177917 471.543762,317.334686 &#10;&#9;C453.723083,322.039642 438.382721,316.984924 425.117676,304.678650 &#10;&#9;C407.676605,288.498199 407.119019,255.563019 422.505432,239.104263 &#10;&#9;C423.028351,238.544846 423.931091,238.153412 423.474701,236.496826 &#10;&#9;C415.778015,239.706863 407.753326,241.392563 399.551758,242.597870 &#10;&#9;C388.285797,244.253540 376.977264,243.853928 365.683167,244.238251 &#10;&#9;C363.656433,244.307220 361.497833,244.113083 360.892029,241.609772 &#10;&#9;C360.231415,238.879807 361.176971,236.619644 363.593689,235.190033 &#10;&#9;C372.321075,230.027359 381.044250,224.896118 390.745880,221.616501 &#10;&#9;C397.781403,219.238129 405.181030,219.293793 412.325134,217.749741 &#10;&#9;C413.264313,217.546753 414.376984,217.761139 414.973083,216.149353 &#10;&#9;C408.949554,213.103455 403.526245,209.097290 399.227509,203.757309 &#10;&#9;C389.537903,191.720673 384.397491,177.721375 383.181915,162.547897 &#10;&#9;C382.325500,151.858017 392.833435,141.089661 403.166748,137.288132 &#10;&#9;C414.649170,133.063858 423.718811,137.181015 432.727448,142.761902 &#10;&#9;C441.808807,148.387848 450.409729,154.822723 455.636749,164.507599 &#10;&#9;C460.634521,173.767731 463.922150,183.472656 459.406494,193.962357 &#10;&#9;C456.043121,201.775299 448.844910,205.777237 442.140381,210.013641 &#10;&#9;C438.647308,212.220825 435.685272,215.015381 431.301178,217.419998 &#10;&#9;C435.881805,219.236877 441.050873,218.941528 441.787994,224.511734 &#10;&#9;C446.454193,224.476685 448.905304,222.930267 448.796661,218.027985 &#10;&#9;C448.634399,210.705017 454.451538,207.445068 459.523499,204.122467 &#10;&#9;C461.734009,202.674377 461.974152,201.593826 462.061676,199.125168 &#10;&#9;C462.467804,187.671295 465.632782,176.767639 470.652802,166.546478 &#10;&#9;C474.016785,159.697128 478.318542,153.308334 482.376312,146.396271 &#10;M591.125671,337.597961 &#10;&#9;C593.429932,336.649658 595.862000,335.928986 598.018372,334.717529 &#10;&#9;C617.607910,323.712189 630.605652,306.956085 639.893433,286.864990 &#10;&#9;C646.453796,272.673767 649.386841,257.509094 652.494995,242.374634 &#10;&#9;C652.873718,240.530792 653.555664,238.459122 651.545349,236.285614 &#10;&#9;C643.228516,240.547165 634.153625,243.104172 625.022766,245.249924 &#10;&#9;C610.443665,248.676010 595.560913,250.348709 580.630310,251.399460 &#10;&#9;C546.723267,253.785675 513.132141,252.110626 480.090271,243.418991 &#10;&#9;C471.135864,241.063553 470.150543,239.402496 473.819397,231.667740 &#10;&#9;C470.198578,229.469391 465.808868,228.500458 463.522400,224.247299 &#10;&#9;C461.076904,219.698227 462.945587,216.154892 466.340057,212.258347 &#10;&#9;C460.112762,214.595627 458.404419,217.037720 458.228149,222.358597 &#10;&#9;C457.855865,233.597916 460.175812,244.410416 462.651306,255.298233 &#10;&#9;C466.519653,272.312103 472.303864,288.478119 481.464630,303.365173 &#10;&#9;C492.434418,321.192108 507.778473,333.900421 527.739807,339.990143 &#10;&#9;C548.667236,346.374603 569.777283,345.754608 591.125671,337.597961 &#10;M604.051880,229.674698 &#10;&#9;C615.874146,226.826584 628.597107,227.164841 639.301208,220.279175 &#10;&#9;C638.687439,218.412109 637.400574,218.393158 636.354187,217.951385 &#10;&#9;C617.383606,209.942123 597.128235,209.375015 577.102966,208.546448 &#10;&#9;C555.519958,207.653412 533.877991,207.603455 512.313416,210.226517 &#10;&#9;C500.611694,211.649887 488.897583,212.691391 477.803375,217.022385 &#10;&#9;C476.199615,217.648438 474.140045,217.822525 473.646576,220.057373 &#10;&#9;C474.481781,222.062912 476.398376,222.458054 478.057495,223.028336 &#10;&#9;C494.384918,228.640533 511.486115,230.769241 528.470337,231.404053 &#10;&#9;C553.339539,232.333572 578.332092,233.130127 604.051880,229.674698 &#10;M427.990509,150.437790 &#10;&#9;C424.249268,148.667679 420.768707,146.336304 416.699402,145.272781 &#10;&#9;C409.320282,143.344254 406.844635,145.665497 408.076111,153.333115 &#10;&#9;C409.354614,161.293915 412.396729,168.556671 416.597656,175.389908 &#10;&#9;C418.507324,178.496155 420.053986,181.793503 422.399719,184.667953 &#10;&#9;C425.858276,188.906128 430.339355,191.689667 435.040649,194.144608 &#10;&#9;C440.034119,196.752121 445.208649,197.724426 449.861450,193.426270 &#10;&#9;C454.433411,189.202728 453.853210,183.746063 452.367706,178.586349 &#10;&#9;C448.687622,165.803894 439.004211,157.969589 427.990509,150.437790 &#10;M468.208923,307.912018 &#10;&#9;C470.743958,307.038574 471.102753,305.564819 469.692719,303.317841 &#10;&#9;C468.113678,300.801575 466.104401,300.549744 463.284821,300.952454 &#10;&#9;C448.744476,303.029144 435.799438,294.694550 431.480377,282.804840 &#10;&#9;C426.305634,268.559479 428.737427,251.852234 445.807251,243.277802 &#10;&#9;C449.438416,241.453812 450.810852,238.809982 449.056885,235.774612 &#10;&#9;C447.258698,232.662613 444.287262,234.967239 442.048798,236.127930 &#10;&#9;C418.180023,248.504211 413.420685,280.846100 433.200928,298.285004 &#10;&#9;C442.885468,306.823212 453.999268,312.065399 468.208923,307.912018 &#10;M428.748047,200.722046 &#10;&#9;C426.225037,199.144943 423.446655,197.863297 421.222321,195.940659 &#10;&#9;C410.443237,186.623550 404.280640,174.416977 400.115143,161.075027 &#10;&#9;C399.406342,158.804733 399.312622,156.057571 396.120453,156.412720 &#10;&#9;C392.927490,156.767944 392.699493,159.626541 392.460999,162.128204 &#10;&#9;C392.352112,163.270035 392.579834,164.447464 392.686920,165.605789 &#10;&#9;C393.275391,171.971924 395.932739,177.684052 398.070251,183.608780 &#10;&#9;C401.815369,193.989471 407.597015,202.525757 417.312531,208.100571 &#10;&#9;C420.846832,210.128601 424.590698,210.364517 428.421814,209.262253 &#10;&#9;C430.563782,208.645950 432.648743,207.549057 433.013763,205.153717 &#10;&#9;C433.392487,202.668365 431.185089,201.898254 428.748047,200.722046 &#10;M452.986969,257.451874 &#10;&#9;C451.940826,251.735962 451.080536,251.376251 446.473175,254.728348 &#10;&#9;C439.236572,259.993347 436.688019,272.624786 441.293793,280.398987 &#10;&#9;C446.032715,288.397919 454.625824,292.438019 462.467255,289.936523 &#10;&#9;C459.336609,279.392761 455.468964,269.029236 452.986969,257.451874 &#10;M535.554443,198.911697 &#10;&#9;C560.519592,198.270874 585.456848,198.558319 610.310364,201.349915 &#10;&#9;C572.475159,195.685318 534.689758,195.307083 497.005127,202.198425 &#10;&#9;C509.520782,201.316269 521.988403,199.508698 535.554443,198.911697 &#10;M562.972656,170.846161 &#10;&#9;C559.740295,165.831284 556.564026,160.779129 553.261597,155.810837 &#10;&#9;C548.986206,149.378784 543.822998,143.836685 537.179504,139.515198 &#10;&#9;C536.512634,141.038239 537.001465,141.758270 537.437378,142.430161 &#10;&#9;C542.669617,150.494339 548.104492,158.419174 554.483704,165.631760 &#10;&#9;C556.563049,167.982712 558.917603,170.103516 561.263794,172.197998 &#10;&#9;C562.119141,172.961624 563.472168,173.701920 562.972656,170.846161 &#10;M478.171844,180.598602 &#10;&#9;C484.546600,170.872635 490.416718,160.931854 491.794800,149.065033 &#10;&#9;C483.673920,160.686066 475.597046,172.302628 473.250732,186.915894 &#10;&#9;C474.769836,185.015457 476.288971,183.115021 478.171844,180.598602 &#10;M411.037109,231.712494 &#10;&#9;C414.686340,230.484955 418.542480,229.700104 422.794983,226.162338 &#10;&#9;C408.085999,226.397476 395.087097,227.538925 383.461304,235.070526 &#10;&#9;C392.649780,235.985611 401.252655,232.508804 411.037109,231.712494 &#10;M599.297485,239.212173 &#10;&#9;C584.552917,240.574707 569.801697,241.424622 554.968994,241.325363 &#10;&#9;C540.382935,241.227737 525.840210,240.400589 511.294891,239.424774 &#10;&#9;C542.419739,244.735657 573.528992,243.939774 604.619568,239.202545 &#10;&#9;C603.130493,239.202545 601.641357,239.202545 599.297485,239.212173 &#10;M648.705261,215.498871 &#10;&#9;C651.421753,218.593246 649.825378,221.885651 648.197754,226.152451 &#10;&#9;C651.791443,223.953690 654.169739,222.277084 653.627808,219.075546 &#10;&#9;C653.059021,215.715302 650.697693,213.612518 646.360596,212.027222 &#10;&#9;C647.466614,213.678009 647.895935,214.318817 648.705261,215.498871 &#10;z" style="fill: rgb(255, 255, 255);"/>
  <path opacity="1.000000" stroke="none" d="&#10;M133.790619,496.823059 &#10;&#9;C143.834305,479.158630 153.783478,461.859833 163.598587,444.485260 &#10;&#9;C173.576508,426.822479 183.413071,409.079895 193.332520,391.383972 &#10;&#9;C195.763336,387.047516 198.257553,382.746216 200.758636,378.449707 &#10;&#9;C202.023560,376.276733 203.992645,375.118500 206.475220,374.931519 &#10;&#9;C207.799622,374.831757 209.139099,374.940521 210.471771,374.941040 &#10;&#9;C220.399200,374.945007 220.984909,374.859070 219.563766,365.047028 &#10;&#9;C217.491928,350.742401 214.832352,336.527557 206.951859,323.859863 &#10;&#9;C199.423706,311.758545 189.159485,304.329071 174.752228,303.192749 &#10;&#9;C171.263397,302.917572 169.433273,300.914856 169.529770,297.715088 &#10;&#9;C169.644882,293.897980 173.198853,293.954834 175.569305,294.123535 &#10;&#9;C190.538132,295.188782 204.809921,298.398590 216.903458,308.176361 &#10;&#9;C231.342484,319.850464 240.998001,334.923737 246.662735,352.234680 &#10;&#9;C252.502533,370.080597 255.841064,388.592712 258.173370,407.279846 &#10;&#9;C263.579437,450.595184 261.917816,494.106720 262.071899,537.562378 &#10;&#9;C262.158722,562.055420 262.106476,586.545227 264.204590,610.963806 &#10;&#9;C265.749359,628.942200 269.107971,646.484131 277.277313,662.879883 &#10;&#9;C284.822662,678.023315 300.635803,685.549561 319.341217,682.292419 &#10;&#9;C321.636902,681.892639 323.898315,681.292542 326.196777,680.913208 &#10;&#9;C329.111786,680.432007 331.262146,681.639954 331.793030,684.542908 &#10;&#9;C332.334076,687.501465 330.601135,689.212097 327.743042,689.809021 &#10;&#9;C306.921753,694.157715 286.865784,692.210388 268.788208,680.559998 &#10;&#9;C258.770172,674.103760 251.706940,664.403870 245.859787,653.960632 &#10;&#9;C237.389359,638.832031 233.083771,622.369568 229.550247,605.549500 &#10;&#9;C225.935623,588.343445 225.067749,570.876343 224.205444,553.462280 &#10;&#9;C222.441803,517.845581 222.111008,482.162994 223.102417,446.525818 &#10;&#9;C223.636581,427.324890 222.319702,408.292023 221.286987,389.199127 &#10;&#9;C221.243835,388.401215 221.024811,387.612762 220.770081,386.139404 &#10;&#9;C213.927902,386.970856 209.185471,391.110474 205.521027,395.772980 &#10;&#9;C197.482346,406.001160 191.984818,417.853302 185.894791,429.297668 &#10;&#9;C183.645889,433.523834 187.228165,435.386505 189.646698,437.416656 &#10;&#9;C196.303055,443.004028 202.424850,449.084015 207.530960,456.119598 &#10;&#9;C223.256546,477.787750 224.806793,500.632782 212.370377,524.186401 &#10;&#9;C205.745941,536.732605 194.436493,544.313354 181.474304,548.937134 &#10;&#9;C166.372879,554.324036 150.741409,556.396729 134.822556,552.385315 &#10;&#9;C130.955643,551.410889 127.121666,550.282471 123.323288,549.066345 &#10;&#9;C119.776581,547.930725 116.922531,547.786682 115.316299,552.093689 &#10;&#9;C112.755928,558.959106 107.420731,564.406067 105.300987,571.562622 &#10;&#9;C103.182823,578.713806 104.179474,581.998169 110.420364,585.902771 &#10;&#9;C112.314812,587.088074 114.375381,588.168884 113.783554,590.819092 &#10;&#9;C113.198143,593.440552 110.753380,593.943848 108.646576,593.958923 &#10;&#9;C95.483322,594.052612 82.318481,593.999390 69.155029,593.890808 &#10;&#9;C67.561104,593.877625 65.388969,593.649719 65.289825,591.545593 &#10;&#9;C65.198219,589.601440 65.830780,587.543091 67.988434,586.576477 &#10;&#9;C70.874115,585.283752 73.741287,583.947083 76.652298,582.713989 &#10;&#9;C89.196503,577.400757 94.363152,565.660095 100.573341,554.946411 &#10;&#9;C102.871872,550.981079 107.032974,546.839661 106.167778,542.529419 &#10;&#9;C105.343674,538.424011 99.459213,537.132019 96.206100,534.115662 &#10;&#9;C85.291298,523.995239 76.487755,512.546570 73.217613,497.579498 &#10;&#9;C72.492439,494.260437 72.632950,491.155182 76.255501,490.287720 &#10;&#9;C79.510094,489.508362 80.660767,492.309937 81.405739,495.096680 &#10;&#9;C84.438187,506.440155 90.483269,516.104980 98.545135,524.475525 &#10;&#9;C101.515167,527.559265 105.077904,530.113220 108.555962,532.654724 &#10;&#9;C111.794380,535.021118 113.369926,532.435364 114.736069,530.039551 &#10;&#9;C120.093567,520.643982 125.392143,511.214874 130.737732,501.812531 &#10;&#9;C131.640808,500.224121 132.667648,498.706055 133.790619,496.823059 &#10;M186.338593,536.836609 &#10;&#9;C213.761780,523.462036 218.591812,487.719208 203.368805,465.107513 &#10;&#9;C197.801056,456.837372 190.663635,450.259430 183.585953,443.496704 &#10;&#9;C180.828125,440.861572 178.743469,441.174683 176.878006,444.431030 &#10;&#9;C172.167557,452.653442 167.395874,460.840820 162.687805,469.064606 &#10;&#9;C153.195175,485.645782 143.655731,502.200836 134.286163,518.851379 &#10;&#9;C130.423294,525.716064 125.940277,532.299316 123.058838,540.293884 &#10;&#9;C144.808212,548.021362 165.493912,547.903687 186.338593,536.836609 &#10;z" style="fill: rgb(255, 255, 255);"/>
  <path opacity="1.000000" stroke="none" d="&#10;M337.849670,455.801025 &#10;&#9;C333.815399,472.538330 329.836548,488.857605 325.940186,505.196564 &#10;&#9;C323.820160,514.086792 321.606842,522.964905 319.859802,531.931152 &#10;&#9;C317.943054,541.768616 327.523834,555.517700 340.611938,549.264221 &#10;&#9;C346.228180,546.580811 351.535889,543.640808 356.440399,539.909485 &#10;&#9;C364.111267,534.073608 369.788086,526.531616 374.586212,518.273376 &#10;&#9;C377.423401,513.390137 377.431305,507.711090 378.791718,502.430115 &#10;&#9;C383.356995,484.708771 387.475983,466.870544 391.608002,449.040497 &#10;&#9;C393.144257,442.411346 390.513153,439.418427 383.744751,439.246552 &#10;&#9;C381.488770,439.189270 378.083282,440.746338 377.689606,436.945496 &#10;&#9;C377.330322,433.476746 380.252899,432.521851 383.204132,431.716888 &#10;&#9;C394.916718,428.522247 406.593201,425.190857 418.243561,421.775543 &#10;&#9;C421.144440,420.925140 424.056702,420.180878 427.042084,420.117584 &#10;&#9;C430.871094,420.036346 432.413818,422.296143 431.444946,425.987732 &#10;&#9;C425.154999,449.952911 419.869690,474.161743 413.937286,498.209595 &#10;&#9;C411.313568,508.845245 408.788757,519.524475 405.934204,530.113403 &#10;&#9;C404.726624,534.592896 403.913544,539.256470 405.385590,543.898010 &#10;&#9;C407.767090,551.407288 413.468018,552.931946 418.910553,547.335571 &#10;&#9;C422.371704,543.776611 425.970612,540.270264 428.450775,535.873291 &#10;&#9;C429.386108,534.215149 430.578339,532.925415 432.493103,532.397217 &#10;&#9;C433.909973,532.006409 435.159241,532.254944 436.192413,533.250061 &#10;&#9;C437.349152,534.364136 437.118500,535.667542 436.410736,536.912354 &#10;&#9;C428.083893,551.557495 417.211090,562.889465 399.387573,564.958008 &#10;&#9;C384.703888,566.662170 372.753357,557.209412 370.920288,542.558594 &#10;&#9;C370.739136,541.110596 370.635651,539.652954 370.397064,537.168457 &#10;&#9;C364.956970,542.620178 360.030334,547.404907 354.370819,551.340454 &#10;&#9;C344.225952,558.395081 333.210907,563.339661 320.917023,564.885315 &#10;&#9;C309.908417,566.269348 300.018738,563.159851 293.540619,553.980835 &#10;&#9;C287.666779,545.658020 286.995056,535.717102 288.238220,525.663940 &#10;&#9;C289.895355,512.263062 293.610260,499.359344 296.993439,486.342529 &#10;&#9;C300.291473,473.653229 302.865387,460.769531 305.519165,447.921997 &#10;&#9;C306.627319,442.557312 303.514404,439.432465 297.393738,439.309113 &#10;&#9;C294.887146,439.258575 291.839081,439.935303 291.572449,436.401978 &#10;&#9;C291.345795,433.398895 293.991943,432.398438 296.532898,431.708099 &#10;&#9;C310.147247,428.009155 323.690674,424.024139 337.387665,420.664124 &#10;&#9;C345.124603,418.766174 346.283508,420.536102 344.317139,428.178986 &#10;&#9;C341.996307,437.199554 340.048859,446.316193 337.849670,455.801025 &#10;z" style="fill: rgb(255, 255, 255);"/>
  <path opacity="1.000000" stroke="none" d="&#10;M818.306763,450.338287 &#10;&#9;C826.530518,441.496948 835.170654,433.681915 845.799500,428.514526 &#10;&#9;C865.184937,419.089966 885.048828,416.469086 905.504700,425.112061 &#10;&#9;C910.044678,427.030273 913.901184,423.966034 918.053467,423.267609 &#10;&#9;C923.283264,422.387878 928.385864,420.655029 933.707458,420.210510 &#10;&#9;C938.360291,419.821838 939.986755,422.122528 938.840820,426.674347 &#10;&#9;C932.876343,450.366791 927.271667,474.141968 921.848999,497.967010 &#10;&#9;C919.604797,507.826935 917.056152,517.668823 914.463318,527.471008 &#10;&#9;C913.210083,532.208740 912.658264,537.000671 913.296326,541.812927 &#10;&#9;C913.760315,545.312683 914.961487,548.756104 918.643799,550.284485 &#10;&#9;C922.177002,551.750977 924.707581,549.499512 927.131531,547.452698 &#10;&#9;C929.280457,545.638062 931.156067,543.488586 933.368225,541.763916 &#10;&#9;C934.865662,540.596313 936.880371,540.163757 938.385681,541.779480 &#10;&#9;C939.993164,543.505005 938.920471,545.230957 937.690125,546.665710 &#10;&#9;C929.750061,555.924011 919.966187,562.776306 907.958801,564.708191 &#10;&#9;C892.823975,567.143433 880.212341,557.343750 878.877258,541.117371 &#10;&#9;C878.720825,539.216309 879.544128,537.175781 877.665161,534.456970 &#10;&#9;C875.361572,540.229126 871.645508,544.359070 867.823792,548.351440 &#10;&#9;C855.008057,561.739441 840.273865,567.539062 821.102417,563.696228 &#10;&#9;C803.208130,560.109436 791.060669,541.530212 790.682312,523.171326 &#10;&#9;C790.104431,495.136780 801.028137,471.799744 818.306763,450.338287 &#10;M825.848633,526.663879 &#10;&#9;C826.503296,530.429871 827.054443,534.189575 828.420349,537.825073 &#10;&#9;C832.937927,549.849426 841.777649,553.737427 853.350159,548.283081 &#10;&#9;C862.489502,543.975525 867.994446,535.948303 872.558044,527.464294 &#10;&#9;C879.579712,514.410583 885.193420,500.744965 888.971619,486.330566 &#10;&#9;C893.223816,470.107483 897.860779,453.985107 902.352600,437.825104 &#10;&#9;C902.979187,435.570709 903.186218,433.289581 900.755737,432.166687 &#10;&#9;C895.614197,429.791321 890.298218,427.331177 884.552002,427.620636 &#10;&#9;C870.437317,428.331848 859.828491,436.104980 851.235901,446.387512 &#10;&#9;C841.783142,457.699341 835.299744,470.758423 831.215332,485.055878 &#10;&#9;C827.398560,498.416443 824.169495,511.763306 825.848633,526.663879 &#10;z" style="fill: rgb(255, 255, 255);"/>
  <path opacity="1.000000" stroke="none" d="&#10;M708.208801,490.046783 &#10;&#9;C704.814636,504.823639 700.684204,519.011841 698.261353,533.588806 &#10;&#9;C698.017395,535.056519 698.034119,536.580872 698.056152,538.077026 &#10;&#9;C698.124817,542.742188 697.608154,547.971863 702.986816,550.116150 &#10;&#9;C708.278320,552.225647 711.015869,547.508423 714.318604,544.685608 &#10;&#9;C715.196777,543.935059 715.823792,542.895691 716.678284,542.111145 &#10;&#9;C718.482483,540.454529 720.696838,540.035828 722.587463,541.551636 &#10;&#9;C724.783386,543.312073 723.140930,545.181030 721.966248,546.751343 &#10;&#9;C713.786194,557.686707 703.232300,564.792969 689.291809,565.175659 &#10;&#9;C672.095947,565.647644 660.434753,552.010010 663.472717,535.040833 &#10;&#9;C667.102722,514.764587 672.567749,494.899933 677.728821,474.970825 &#10;&#9;C679.932556,466.461334 681.589600,457.811798 683.650818,449.263489 &#10;&#9;C687.619385,432.804962 691.714722,416.377045 695.725830,399.928680 &#10;&#9;C697.695679,391.850769 699.697571,383.778290 701.490112,375.660309 &#10;&#9;C702.746155,369.972137 699.028992,366.407928 692.249207,366.436127 &#10;&#9;C690.272888,366.444336 687.426208,367.853180 687.093018,364.457062 &#10;&#9;C686.829163,361.768066 688.977478,360.283905 691.381104,359.657990 &#10;&#9;C700.211731,357.358276 708.792847,354.236938 717.794495,352.427490 &#10;&#9;C723.739685,351.232422 729.293152,348.217438 735.482605,347.619141 &#10;&#9;C740.787720,347.106384 742.722046,349.195801 741.184509,354.242279 &#10;&#9;C734.106567,377.473328 730.055481,401.430206 724.143494,424.941101 &#10;&#9;C718.728333,446.476318 713.553040,468.071869 708.208801,490.046783 &#10;z" style="fill: rgb(255, 255, 255);"/>
  <path opacity="1.000000" stroke="none" d="&#10;M604.317993,421.373413 &#10;&#9;C618.658264,419.543854 632.558594,418.144714 645.598816,425.514160 &#10;&#9;C659.857422,433.572144 665.876526,445.889740 663.847412,462.210205 &#10;&#9;C662.897034,469.854462 659.932739,476.604797 656.175903,483.133240 &#10;&#9;C654.746094,485.617981 652.561279,486.932709 649.662354,487.135895 &#10;&#9;C630.082214,488.508484 610.545654,490.415192 590.928955,491.396698 &#10;&#9;C583.681030,491.759369 576.497009,493.545654 569.137329,493.402496 &#10;&#9;C566.267090,493.346680 565.604370,495.677856 565.637329,497.953552 &#10;&#9;C565.850830,512.662964 569.684204,526.222595 578.936035,537.908630 &#10;&#9;C585.433105,546.115112 594.357300,550.358704 604.501160,550.492126 &#10;&#9;C612.942078,550.603271 619.947571,545.678711 626.102356,540.156860 &#10;&#9;C631.570923,535.250671 635.890076,529.300659 639.993286,523.227112 &#10;&#9;C640.860107,521.944092 641.790527,520.836853 643.310791,520.358093 &#10;&#9;C645.091858,519.797180 646.650818,520.322754 647.889709,521.569580 &#10;&#9;C649.130371,522.818298 648.968384,524.263367 647.985901,525.654541 &#10;&#9;C638.082764,539.677063 626.950134,552.196167 610.524841,559.040649 &#10;&#9;C603.067078,562.148193 595.474854,564.825867 587.522156,565.011292 &#10;&#9;C561.922180,565.608154 544.091125,554.333923 536.856750,528.856628 &#10;&#9;C532.900330,514.923584 533.511597,500.611847 537.605713,486.545227 &#10;&#9;C543.857178,465.066559 555.209717,447.263031 573.908936,434.417511 &#10;&#9;C583.111816,428.095581 593.239380,424.194489 604.317993,421.373413 &#10;M588.606018,435.058197 &#10;&#9;C583.255432,438.446442 579.625977,443.326569 576.534912,448.734314 &#10;&#9;C570.944031,458.515259 567.141174,468.862488 566.157654,480.154297 &#10;&#9;C565.892334,483.200226 566.560730,484.577026 570.303589,484.227936 &#10;&#9;C588.473022,482.533325 606.671753,481.142303 624.870972,479.789368 &#10;&#9;C627.850647,479.567841 629.973877,478.555511 631.243164,475.870544 &#10;&#9;C634.864075,468.210754 636.838379,460.261108 635.683228,451.705872 &#10;&#9;C634.190552,440.651245 625.455383,430.448120 615.956482,429.304993 &#10;&#9;C606.519653,428.169373 597.317932,428.862335 588.606018,435.058197 &#10;z" style="fill: rgb(255, 255, 255);"/>
  <path opacity="1.000000" stroke="none" d="&#10;M476.301880,523.220825 &#10;&#9;C473.716309,534.824463 471.127472,546.000000 468.706573,557.211731 &#10;&#9;C467.267426,563.876770 466.140747,564.953186 459.396454,564.980530 &#10;&#9;C452.565430,565.008179 445.734344,565.032043 438.903290,565.033020 &#10;&#9;C433.799255,565.033752 432.557465,562.995056 433.768280,558.192322 &#10;&#9;C437.579163,543.076233 441.087494,527.884277 444.789032,512.740295 &#10;&#9;C447.895142,500.032501 451.152374,487.361694 454.258240,474.653839 &#10;&#9;C456.464142,465.628082 458.593750,456.582397 460.630035,447.516998 &#10;&#9;C461.620270,443.108612 459.752289,440.397949 455.208618,439.778076 &#10;&#9;C453.741486,439.577881 452.233368,439.550934 450.751526,439.616058 &#10;&#9;C448.582825,439.711365 446.486694,439.338440 445.900696,437.056366 &#10;&#9;C445.226074,434.429016 447.212128,432.959167 449.356537,432.334930 &#10;&#9;C455.570862,430.525940 461.866425,428.998199 468.111694,427.292603 &#10;&#9;C476.265839,425.065674 484.342957,422.520844 492.565430,420.591125 &#10;&#9;C499.009613,419.078735 500.817932,421.144073 499.396881,427.709747 &#10;&#9;C497.822571,434.983551 496.065155,442.217682 495.101898,449.939178 &#10;&#9;C497.859009,446.628326 500.509827,443.221619 503.392822,440.024292 &#10;&#9;C512.642822,429.765656 523.385620,421.884674 537.534790,420.134918 &#10;&#9;C545.808228,419.111755 553.143311,420.812012 557.467957,429.027100 &#10;&#9;C559.827148,433.508484 558.840942,441.009064 554.897888,444.055542 &#10;&#9;C548.983459,448.625122 542.873352,452.956635 536.681580,457.145721 &#10;&#9;C533.563904,459.254944 531.018921,458.038666 530.757690,454.256439 &#10;&#9;C530.521851,450.842072 529.390503,447.716705 528.378418,444.600952 &#10;&#9;C526.183350,437.843384 520.975464,436.390686 515.050659,440.303986 &#10;&#9;C509.092438,444.239319 504.583099,449.504150 500.779846,455.409668 &#10;&#9;C493.563995,466.614105 486.434967,477.962646 483.945099,491.296417 &#10;&#9;C481.955902,501.949097 478.514191,512.215393 476.301880,523.220825 &#10;z" style="fill: rgb(255, 255, 255);"/>
  <path opacity="1.000000" stroke="none" d="&#10;M590.940186,113.934998 &#10;&#9;C596.006042,108.411430 601.891846,106.768829 609.042114,105.479195 &#10;&#9;C618.485657,103.775948 625.005981,107.706360 631.390137,112.394211 &#10;&#9;C637.906250,117.178955 639.826965,125.047928 640.701477,132.750488 &#10;&#9;C641.393188,138.843079 642.402161,144.904388 642.590393,151.087173 &#10;&#9;C642.714233,155.156693 640.183838,158.643036 640.764709,164.067169 &#10;&#9;C647.102905,151.281296 656.531128,142.957870 667.659424,137.014908 &#10;&#9;C676.558838,132.262253 686.012695,126.278641 696.809631,131.107620 &#10;&#9;C701.920593,133.393509 707.553345,134.601379 711.545532,139.788681 &#10;&#9;C722.053284,153.442276 717.842957,166.768112 711.983948,180.271927 &#10;&#9;C709.535889,185.914337 706.194092,191.078888 702.452087,195.972916 &#10;&#9;C695.590881,204.946365 686.934875,210.809097 675.401489,211.845505 &#10;&#9;C671.623779,212.184967 668.022461,211.820572 664.929993,209.494064 &#10;&#9;C657.355713,203.795776 649.919678,197.865829 643.384094,191.019699 &#10;&#9;C639.181030,186.616943 637.417297,180.791733 637.687256,173.830338 &#10;&#9;C634.229248,176.578278 633.307556,180.275940 630.855835,182.911453 &#10;&#9;C625.484497,188.685379 619.128418,190.302155 611.866699,189.100815 &#10;&#9;C604.325195,187.853180 596.825317,186.375214 589.368103,184.566422 &#10;&#9;C579.809692,182.247925 575.788025,175.458496 573.828003,167.008972 &#10;&#9;C569.190735,147.018509 577.748901,130.859039 589.413879,115.728661 &#10;&#9;C589.820007,115.201958 590.279419,114.716385 590.940186,113.934998 &#10;M682.188171,200.835800 &#10;&#9;C698.188843,191.583908 705.154846,176.459106 708.448425,159.311035 &#10;&#9;C709.810364,152.219894 705.716736,149.364288 698.836670,152.186493 &#10;&#9;C684.683228,157.992126 673.641052,167.540207 666.298279,181.055435 &#10;&#9;C662.794189,187.505325 663.369812,195.550888 667.209106,199.883041 &#10;&#9;C670.427368,203.514542 674.774170,203.900528 682.188171,200.835800 &#10;M619.680725,121.134048 &#10;&#9;C609.729919,132.837051 603.066284,145.853104 602.910583,161.660843 &#10;&#9;C602.852295,167.583725 604.179321,172.792114 608.119141,177.334717 &#10;&#9;C611.841553,181.626663 617.454163,182.133286 621.732117,178.449661 &#10;&#9;C627.923340,173.118546 631.453674,166.734680 632.268250,158.309616 &#10;&#9;C633.374207,146.870850 633.141663,135.746887 629.178711,124.885460 &#10;&#9;C627.253540,119.609016 625.004028,118.627289 619.680725,121.134048 &#10;M586.480896,138.028549 &#10;&#9;C582.351807,147.624161 579.330017,157.335495 582.927979,167.870010 &#10;&#9;C584.458740,172.351776 587.295410,175.299118 592.087219,175.898758 &#10;&#9;C594.522461,176.203491 595.984253,175.262421 595.164917,172.407623 &#10;&#9;C589.817261,153.776993 596.751831,137.882568 606.379761,122.633537 &#10;&#9;C607.803101,120.379303 610.212463,118.269310 607.157410,115.817711 &#10;&#9;C604.236633,113.473862 602.310486,116.042732 600.419373,117.823975 &#10;&#9;C594.519836,123.380692 590.643494,130.348587 586.480896,138.028549 &#10;M665.366150,164.878601 &#10;&#9;C672.401489,156.942825 680.838196,150.840683 690.157288,145.880692 &#10;&#9;C692.202576,144.792084 694.832520,143.760193 693.407776,140.728638 &#10;&#9;C692.209290,138.178711 689.714417,138.312729 687.294678,138.815308 &#10;&#9;C682.484985,139.814270 678.198303,142.261505 674.034546,144.536606 &#10;&#9;C662.809021,150.670242 652.570862,158.067169 648.095825,170.966751 &#10;&#9;C646.410950,175.823257 646.667542,180.458038 649.605042,184.779800 &#10;&#9;C650.620789,186.274139 652.110596,186.972992 653.937256,186.624924 &#10;&#9;C655.660278,186.296616 655.438110,184.765808 655.868774,183.533188 &#10;&#9;C658.108948,177.122330 659.807434,170.419769 665.366150,164.878601 &#10;z" style="fill: rgb(255, 255, 255);"/>
  <path opacity="1.000000" stroke="none" d="&#10;M786.045898,450.838470 &#10;&#9;C779.889648,475.601013 773.731812,499.934570 767.751221,524.311584 &#10;&#9;C766.404663,529.800049 765.612854,535.444031 766.085083,541.145142 &#10;&#9;C766.421936,545.212952 768.039612,548.673096 772.042114,550.244934 &#10;&#9;C775.858765,551.743774 778.259949,548.788635 780.769897,546.735474 &#10;&#9;C782.689392,545.165283 784.190918,543.073730 786.147400,541.562378 &#10;&#9;C787.657104,540.396118 789.680176,540.255066 791.226013,541.666626 &#10;&#9;C792.777527,543.083313 792.078857,544.831909 791.098511,546.203918 &#10;&#9;C783.335938,557.066956 772.847229,564.053284 759.548218,564.954773 &#10;&#9;C740.177429,566.267944 728.220276,551.791565 732.305176,532.117432 &#10;&#9;C735.878479,514.907654 740.672607,497.954681 744.504395,480.793793 &#10;&#9;C746.895508,470.085083 750.539185,459.695282 752.247803,448.818512 &#10;&#9;C753.290833,442.179047 750.538391,438.920898 743.859741,439.667175 &#10;&#9;C741.546509,439.925690 739.244812,440.145966 738.476868,437.507050 &#10;&#9;C737.679382,434.766693 739.615662,432.832031 741.874084,432.170135 &#10;&#9;C755.911499,428.056366 770.013306,424.161957 784.103821,420.230774 &#10;&#9;C785.052734,419.966034 786.082947,419.915497 787.077087,419.902985 &#10;&#9;C791.536377,419.846924 793.001282,421.893250 791.919617,426.240448 &#10;&#9;C789.917786,434.285919 788.038513,442.361908 786.045898,450.838470 &#10;z" style="fill: rgb(255, 255, 255);"/>
  <path opacity="1.000000" stroke="none" d="&#10;M70.020500,449.994232 &#10;&#9;C71.914513,456.850983 75.073074,463.331512 75.598022,470.606445 &#10;&#9;C75.927826,475.177063 75.540298,479.634033 74.257370,483.917175 &#10;&#9;C70.693474,495.815430 58.773041,499.797058 48.919670,492.206329 &#10;&#9;C39.550156,484.988251 34.346420,475.249969 32.769958,463.442841 &#10;&#9;C32.091896,458.364380 30.846849,453.385925 30.504389,448.215302 &#10;&#9;C30.052122,441.386810 31.877663,435.003967 33.551220,428.586517 &#10;&#9;C33.977924,426.950256 35.304592,425.170105 36.730221,424.250366 &#10;&#9;C39.868546,422.225708 43.778297,421.372742 44.847664,416.866028 &#10;&#9;C45.119877,415.718811 47.725719,414.663635 48.757832,415.407013 &#10;&#9;C52.558071,418.144012 55.413967,415.500610 58.820847,414.615753 &#10;&#9;C62.867508,413.564728 66.753090,415.815094 69.886551,418.220886 &#10;&#9;C81.766609,427.342163 90.481827,438.877014 95.449219,453.130615 &#10;&#9;C97.503708,459.025879 98.671059,464.985931 97.983292,471.268250 &#10;&#9;C96.952667,480.682526 92.132729,484.003937 84.489433,486.761841 &#10;&#9;C79.056007,488.722351 76.238068,485.392456 77.124718,479.585632 &#10;&#9;C78.731407,469.063263 76.996284,459.148376 70.222702,449.813690 &#10;&#9;C69.764984,444.786255 66.375839,442.181122 63.880497,438.669800 &#10;&#9;C61.141602,431.574188 53.109016,429.194122 50.829784,421.519348 &#10;&#9;C49.926216,422.926941 48.257248,422.485565 48.227501,424.860413 &#10;&#9;C54.605228,427.931488 57.752926,435.114014 64.087158,439.343567 &#10;&#9;C64.991379,443.777130 66.778534,447.300537 70.020500,449.994232 &#10;z" style="fill: rgb(255, 255, 255);"/>
  <path opacity="1.000000" stroke="none" d="&#10;M695.802490,236.459564 &#10;&#9;C686.940063,234.939606 679.223999,231.313171 671.254456,228.442627 &#10;&#9;C667.470703,227.079742 665.410339,224.645401 665.791504,220.571136 &#10;&#9;C666.172485,216.499222 669.261047,215.851562 672.580383,215.340042 &#10;&#9;C689.623840,212.713608 706.321655,213.743362 722.975098,218.557388 &#10;&#9;C729.536011,220.453934 735.866882,222.931656 742.397095,224.847504 &#10;&#9;C744.978027,225.604691 747.871887,226.473282 747.553894,229.933517 &#10;&#9;C747.285156,232.857834 744.822327,233.907166 742.254333,234.456009 &#10;&#9;C727.027710,237.710266 711.744812,239.806595 695.802490,236.459564 &#10;M686.134949,222.383575 &#10;&#9;C685.178223,222.634720 683.696167,221.795670 683.384216,224.225632 &#10;&#9;C696.840881,228.128021 710.321411,231.420822 725.761536,229.053406 &#10;&#9;C723.047241,227.257141 721.098328,226.654724 719.043762,226.110703 &#10;&#9;C708.498718,223.318604 697.652161,223.232498 686.134949,222.383575 &#10;z" style="fill: rgb(255, 255, 255);"/>
  <path opacity="1.000000" stroke="none" d="&#10;M666.229736,612.520203 &#10;&#9;C669.929016,604.786865 676.035828,601.863525 683.921143,604.027344 &#10;&#9;C688.019348,605.151855 692.101135,604.098999 696.190063,604.327759 &#10;&#9;C698.417297,604.452393 699.993103,602.574646 700.634644,600.228516 &#10;&#9;C701.980652,595.305847 705.932190,594.204468 710.289734,593.932251 &#10;&#9;C712.209839,593.812256 714.088989,594.381897 714.474121,596.623413 &#10;&#9;C714.811157,598.585327 713.573486,599.706055 711.768555,600.210693 &#10;&#9;C710.491272,600.567932 709.109436,600.750366 708.762878,602.376404 &#10;&#9;C708.896606,602.690063 708.939148,603.090393 709.159119,603.258118 &#10;&#9;C710.870239,604.563049 714.436279,603.031555 714.658081,606.398193 &#10;&#9;C714.846375,609.256714 712.255249,610.017517 710.084167,610.948730 &#10;&#9;C708.194763,611.758972 708.288330,613.543213 708.287537,615.229858 &#10;&#9;C708.285522,619.555603 708.288086,623.881470 708.257019,628.207031 &#10;&#9;C708.238220,630.818481 707.424316,632.917480 704.347107,632.877014 &#10;&#9;C701.089478,632.834167 699.536804,631.010742 699.599487,627.768555 &#10;&#9;C699.673462,623.945923 699.769958,620.122864 699.775391,616.299927 &#10;&#9;C699.778076,614.373108 700.306519,611.719849 697.552734,611.515198 &#10;&#9;C694.334839,611.276062 695.311951,614.202515 695.240417,615.949951 &#10;&#9;C695.090942,619.603271 695.299988,623.269775 695.225403,626.928040 &#10;&#9;C695.120911,632.052612 693.767456,633.202332 688.925232,632.117493 &#10;&#9;C687.519470,631.802551 686.253784,631.895325 685.032288,632.342651 &#10;&#9;C670.010254,637.844055 662.435364,623.921448 666.229736,612.520203 &#10;M684.053467,624.674255 &#10;&#9;C687.222656,622.247986 687.245667,619.049072 686.062500,615.708740 &#10;&#9;C685.280518,613.500916 684.207397,611.366821 681.415771,611.084229 &#10;&#9;C678.828552,610.822266 676.387756,610.971924 674.928040,613.602295 &#10;&#9;C673.185608,616.742371 672.935486,619.735718 675.141541,622.915527 &#10;&#9;C677.385498,626.150085 680.114380,626.376282 684.053467,624.674255 &#10;z" style="fill: rgb(255, 255, 255);"/>
  <path opacity="1.000000" stroke="none" d="&#10;M777.697021,415.133820 &#10;&#9;C765.728210,415.197174 757.923340,408.207886 757.828430,397.747467 &#10;&#9;C757.743347,388.373688 766.454285,379.867279 776.215820,379.791840 &#10;&#9;C785.192871,379.722473 792.436340,386.378113 793.604858,395.769562 &#10;&#9;C794.724915,404.771942 788.089111,413.065704 777.697021,415.133820 &#10;z" style="fill: rgb(255, 255, 255);"/>
  <path opacity="1.000000" stroke="none" d="&#10;M599.384888,594.957397 &#10;&#9;C601.393982,594.500183 603.013489,594.076477 604.658691,593.915955 &#10;&#9;C609.205383,593.472229 613.471008,593.954712 615.643433,598.766602 &#10;&#9;C617.389160,602.633118 615.528809,607.336182 611.073792,610.954895 &#10;&#9;C607.137512,614.152283 607.223633,614.996765 612.133545,618.002686 &#10;&#9;C612.286560,612.062012 616.150879,611.407532 620.709412,611.959106 &#10;&#9;C622.365784,612.159668 624.124512,612.529236 624.368225,614.673706 &#10;&#9;C624.574768,616.490601 623.392761,617.464478 621.887695,617.968933 &#10;&#9;C620.123962,618.559998 619.136780,619.739441 618.643372,621.451111 &#10;&#9;C617.632080,624.959717 619.324951,627.047058 622.943787,626.381165 &#10;&#9;C625.213623,625.963501 627.474304,625.334656 628.357727,628.120117 &#10;&#9;C629.300598,631.093323 626.931946,632.190857 624.750793,633.194092 &#10;&#9;C624.297729,633.402466 623.743652,633.812866 623.365173,633.699463 &#10;&#9;C615.423523,631.319397 607.307068,635.014648 599.475891,633.213013 &#10;&#9;C589.753845,630.976379 586.954956,622.864990 593.028564,615.039429 &#10;&#9;C594.992249,612.509277 595.542847,610.602783 594.424438,607.487061 &#10;&#9;C592.548401,602.260559 594.243713,598.490051 599.384888,594.957397 &#10;M598.843689,621.100037 &#10;&#9;C599.110718,625.467041 601.453857,627.067993 606.331055,626.422974 &#10;&#9;C604.037781,623.613464 603.587280,619.671326 598.843689,621.100037 &#10;M606.000671,600.307434 &#10;&#9;C602.014648,600.933594 602.382446,603.415283 603.404846,607.035828 &#10;&#9;C605.594849,604.886963 610.256348,604.968872 606.000671,600.307434 &#10;z" style="fill: rgb(255, 255, 255);"/>
  <path opacity="1.000000" stroke="none" d="&#10;M459.836517,603.909790 &#10;&#9;C461.949982,603.934570 463.536682,604.254700 465.067108,605.054749 &#10;&#9;C468.471130,606.834351 472.505493,605.575256 473.657166,601.943848 &#10;&#9;C474.508087,599.260925 475.906647,597.966675 478.543243,597.896423 &#10;&#9;C481.043488,597.829712 481.752533,599.976440 483.263031,601.395264 &#10;&#9;C487.845551,605.699768 488.655731,608.557556 483.533875,613.489075 &#10;&#9;C481.509949,615.437744 483.117371,621.137756 483.031219,625.128845 &#10;&#9;C482.995361,626.789246 483.073212,628.497375 482.707886,630.094238 &#10;&#9;C482.215485,632.246643 480.717987,633.598206 478.377777,633.412964 &#10;&#9;C476.279236,633.246704 474.957367,631.933838 474.867950,629.842651 &#10;&#9;C474.661926,625.025513 474.142212,620.148010 474.660736,615.394409 &#10;&#9;C475.169373,610.731140 470.374817,609.372253 469.436676,609.995789 &#10;&#9;C465.473999,612.629578 461.102448,610.623779 456.701019,611.696045 &#10;&#9;C458.017456,614.770874 460.718872,614.601685 462.583344,615.552673 &#10;&#9;C468.404938,618.521912 470.841492,621.870361 469.832672,626.102356 &#10;&#9;C468.694824,630.875549 463.813416,634.305603 457.963379,634.142456 &#10;&#9;C455.662292,634.078247 453.317688,633.636902 451.101410,632.993469 &#10;&#9;C448.667908,632.287170 445.927185,631.187378 447.294861,627.850769 &#10;&#9;C448.392059,625.174011 450.599274,624.571228 453.509521,625.663025 &#10;&#9;C457.990723,627.344177 458.052338,627.179932 460.917664,624.724426 &#10;&#9;C460.503876,622.923706 458.993347,622.685791 457.533295,622.336548 &#10;&#9;C450.578033,620.672791 447.380463,617.312378 448.006165,612.352356 &#10;&#9;C448.748108,606.470764 451.938599,604.106689 459.836517,603.909790 &#10;z" style="fill: rgb(255, 255, 255);"/>
  <path opacity="1.000000" stroke="none" d="&#10;M728.539917,595.360107 &#10;&#9;C733.761353,596.008301 734.303162,597.282410 731.971436,603.083069 &#10;&#9;C735.269165,605.323608 738.787476,607.511230 739.648010,612.046448 &#10;&#9;C740.499207,616.532349 739.094299,618.803772 734.569092,619.138611 &#10;&#9;C731.927368,619.334045 729.256836,619.111511 726.600098,619.143433 &#10;&#9;C724.966064,619.163086 722.954163,618.924744 722.720520,621.220337 &#10;&#9;C722.528137,623.111023 723.988403,624.082825 725.569275,624.882690 &#10;&#9;C728.570557,626.401184 731.440247,625.007385 734.341858,624.608398 &#10;&#9;C736.109131,624.365356 738.091919,623.273193 738.914978,625.857788 &#10;&#9;C739.694519,628.305420 738.582275,629.838135 736.288513,630.993042 &#10;&#9;C726.815247,635.762390 720.539062,634.418640 715.669373,627.341003 &#10;&#9;C710.331360,619.582764 712.995544,609.302551 720.916748,604.933777 &#10;&#9;C722.258545,604.193726 723.514221,603.434326 723.684204,601.695740 &#10;&#9;C723.971802,598.754272 725.871948,596.974304 728.539917,595.360107 &#10;z" style="fill: rgb(255, 255, 255);"/>
  <path opacity="1.000000" stroke="none" d="&#10;M517.478394,606.056763 &#10;&#9;C518.554504,604.828674 519.826294,603.860535 520.748840,604.306335 &#10;&#9;C525.943848,606.816895 531.453003,602.201416 536.752930,605.803223 &#10;&#9;C537.391296,602.145142 536.739990,598.613770 540.018005,596.461975 &#10;&#9;C541.882141,595.238342 543.584717,594.524231 545.425537,596.116638 &#10;&#9;C547.316284,597.752197 547.158081,599.823059 545.532837,601.367981 &#10;&#9;C543.556274,603.246765 543.790466,605.138733 543.949890,607.612793 &#10;&#9;C544.398132,614.570190 544.289307,621.567871 544.263916,628.549194 &#10;&#9;C544.253235,631.471191 542.685852,633.309570 539.618958,633.226013 &#10;&#9;C536.586914,633.143250 535.080383,631.213928 535.071838,628.349548 &#10;&#9;C535.054626,622.585205 536.277588,616.825562 535.211243,611.037537 &#10;&#9;C525.768372,612.878723 524.697449,614.330322 525.573303,623.962097 &#10;&#9;C525.693542,625.284912 525.887390,626.616638 525.836975,627.936218 &#10;&#9;C525.720398,630.987305 524.352051,633.079651 521.034668,633.125610 &#10;&#9;C517.442322,633.175415 516.639526,630.823730 516.736572,627.789307 &#10;&#9;C516.964417,620.661804 516.321655,613.513916 517.478394,606.056763 &#10;z" style="fill: rgb(255, 255, 255);"/>
  <path opacity="1.000000" stroke="none" d="&#10;M546.254150,621.413696 &#10;&#9;C544.610046,608.915344 554.963013,601.286011 565.272095,604.452332 &#10;&#9;C566.900513,604.952515 568.569092,605.200317 570.194275,604.674500 &#10;&#9;C574.106323,603.408752 575.451782,605.306641 575.442871,608.839233 &#10;&#9;C575.426147,615.503052 575.385132,622.167480 575.269958,628.830200 &#10;&#9;C575.216980,631.893372 573.971191,633.596436 570.530823,632.537659 &#10;&#9;C568.919922,632.041931 567.247620,632.153137 565.593384,632.583374 &#10;&#9;C554.450928,635.481018 549.592041,632.756226 546.254150,621.413696 &#10;M556.375671,623.966492 &#10;&#9;C556.883972,624.390076 557.328674,624.960083 557.911072,625.213013 &#10;&#9;C561.205566,626.643738 564.153320,626.128784 566.344238,623.187805 &#10;&#9;C568.477112,620.324768 568.273621,617.218750 566.450745,614.314331 &#10;&#9;C564.638428,611.426819 561.854553,610.453918 558.648193,611.559509 &#10;&#9;C555.129944,612.772705 554.938904,615.900818 554.932495,618.984436 &#10;&#9;C554.929382,620.486755 555.049744,621.985291 556.375671,623.966492 &#10;z" style="fill: rgb(255, 255, 255);"/>
  <path opacity="1.000000" stroke="none" d="&#10;M511.226837,619.959839 &#10;&#9;C506.469910,620.758057 501.928284,619.263672 497.615662,620.988464 &#10;&#9;C499.333893,626.317383 502.429016,627.781616 507.502167,625.934692 &#10;&#9;C509.718903,625.127625 512.432556,622.979919 513.722473,626.708252 &#10;&#9;C514.919922,630.169250 512.496948,631.632446 509.444519,632.673706 &#10;&#9;C499.617279,636.026001 492.898590,633.441162 488.913910,624.520386 &#10;&#9;C485.687378,617.296936 488.831940,609.438477 496.477722,605.165222 &#10;&#9;C502.261780,601.932495 513.178589,604.415771 514.387878,612.617737 &#10;&#9;C514.850403,615.754578 514.649963,618.225159 511.226837,619.959839 &#10;z" style="fill: rgb(255, 255, 255);"/>
  <path opacity="1.000000" stroke="none" d="&#10;M410.750702,630.874451 &#10;&#9;C399.952606,637.229431 388.815948,634.186340 385.746216,624.361816 &#10;&#9;C383.189545,616.179382 386.385559,609.159424 394.479126,605.180298 &#10;&#9;C400.710968,602.116455 410.006561,604.672241 414.092285,610.572876 &#10;&#9;C417.869598,616.028076 416.489258,625.105469 410.750702,630.874451 &#10;M407.146942,622.425110 &#10;&#9;C408.410767,618.002136 407.915588,613.959534 403.373932,611.888367 &#10;&#9;C399.813568,610.264709 396.285889,610.485535 394.121918,614.706787 &#10;&#9;C392.102997,618.645142 393.079498,623.331604 396.635895,625.682678 &#10;&#9;C400.059906,627.946228 403.645660,627.045044 407.146942,622.425110 &#10;z" style="fill: rgb(255, 255, 255);"/>
  <path opacity="1.000000" stroke="none" d="&#10;M359.904846,602.525635 &#10;&#9;C357.428009,607.530457 357.940063,608.564392 362.823944,609.121643 &#10;&#9;C364.468323,609.309265 366.145142,609.228516 367.783997,609.445312 &#10;&#9;C370.010040,609.739746 371.566650,611.065674 371.576080,613.336060 &#10;&#9;C371.586151,615.747986 369.763458,616.658325 367.591125,616.972656 &#10;&#9;C364.607819,617.404419 360.785736,615.104370 358.796387,618.409302 &#10;&#9;C357.195587,621.068726 358.244019,624.588257 358.207214,627.723267 &#10;&#9;C358.170044,630.893799 357.353241,633.644043 353.740906,633.677979 &#10;&#9;C349.996185,633.713074 348.771545,631.101379 348.808929,627.604980 &#10;&#9;C348.904694,618.647095 348.937103,609.687866 348.900330,600.729492 &#10;&#9;C348.884766,596.936340 350.961914,595.193726 354.399445,595.070374 &#10;&#9;C359.374878,594.891785 364.362946,594.957703 369.342834,595.056824 &#10;&#9;C371.682343,595.103333 373.837433,596.073853 373.856415,598.706482 &#10;&#9;C373.876862,601.541931 371.510681,601.958862 369.226898,602.050232 &#10;&#9;C366.245117,602.169556 363.262085,602.256104 359.904846,602.525635 &#10;z" style="fill: rgb(255, 255, 255);"/>
  <path opacity="1.000000" stroke="none" d="&#10;M440.255737,633.486572 &#10;&#9;C433.027740,630.904541 437.428589,625.082886 436.403168,620.883850 &#10;&#9;C435.654449,617.818054 436.256683,614.422363 436.256683,611.148865 &#10;&#9;C426.139679,613.169617 425.567627,613.949829 426.770996,623.909058 &#10;&#9;C426.790924,624.073975 426.824493,624.237305 426.842468,624.402344 &#10;&#9;C427.467896,630.152466 425.597260,634.130798 422.159576,633.714478 &#10;&#9;C416.749298,633.059204 417.944275,628.750916 417.969940,625.193237 &#10;&#9;C418.005859,620.210510 417.807526,615.213196 418.126953,610.249023 &#10;&#9;C418.456573,605.126709 420.315094,603.942017 425.147705,605.240601 &#10;&#9;C426.151764,605.510376 427.167114,605.885437 428.012421,605.286865 &#10;&#9;C432.352386,602.213318 436.911194,606.435608 441.439636,604.775879 &#10;&#9;C443.328033,604.083740 444.811829,606.528870 444.707947,608.360291 &#10;&#9;C444.315460,615.278381 445.642944,622.210510 444.414032,629.115173 &#10;&#9;C444.004700,631.415100 443.396637,633.355347 440.255737,633.486572 &#10;z" style="fill: rgb(255, 255, 255);"/>
  <path opacity="1.000000" stroke="none" d="&#10;M647.718018,632.519043 &#10;&#9;C641.187195,631.232422 637.367676,621.976135 639.228271,614.208618 &#10;&#9;C640.821777,607.556030 648.415894,602.330078 655.566162,603.164917 &#10;&#9;C658.019165,603.451294 660.548035,603.795349 662.632263,605.347229 &#10;&#9;C664.015808,606.377319 665.191772,607.599548 664.443176,609.543274 &#10;&#9;C663.681763,611.520081 662.202637,612.307556 660.098877,611.958801 &#10;&#9;C658.140381,611.634033 656.172668,611.090698 654.212646,611.106201 &#10;&#9;C650.118103,611.138611 647.124207,614.422791 647.131348,618.520630 &#10;&#9;C647.138733,622.752930 649.996460,625.781921 654.281372,625.779175 &#10;&#9;C656.072815,625.778015 657.874329,625.261780 659.652283,624.889160 &#10;&#9;C661.694763,624.460999 663.699768,624.050598 664.595093,626.664673 &#10;&#9;C665.388611,628.981323 664.213867,630.535461 662.369995,631.645325 &#10;&#9;C657.799072,634.396545 653.035034,634.904663 647.718018,632.519043 &#10;z" style="fill: rgb(255, 255, 255);"/>
  <path opacity="1.000000" stroke="none" d="&#10;M382.744080,631.688721 &#10;&#9;C378.059967,635.023315 375.084930,633.896606 374.966125,628.732056 &#10;&#9;C374.745209,619.124817 374.914703,609.507385 374.997772,599.894897 &#10;&#9;C375.022980,596.979492 376.638519,595.197205 379.563873,595.011414 &#10;&#9;C381.982361,594.857666 382.752899,596.830811 382.778717,598.653870 &#10;&#9;C382.933167,609.557800 382.915619,620.464050 382.744080,631.688721 &#10;z" style="fill: rgb(255, 255, 255);"/>
  <path opacity="1.000000" stroke="none" d="&#10;M443.938049,600.472534 &#10;&#9;C442.438995,602.499573 440.839478,603.465454 438.677124,602.496582 &#10;&#9;C437.375214,601.913330 436.653137,600.806152 436.668945,599.385254 &#10;&#9;C436.695190,597.027283 437.601929,594.999634 440.182281,594.891052 &#10;&#9;C443.687256,594.743652 444.633698,596.970520 443.938049,600.472534 &#10;z" style="fill: rgb(255, 255, 255);"/>
</svg>